<?xml version="1.0" standalone="no"?><!DOCTYPE svg PUBLIC "-//W3C//DTD SVG 1.1//EN" "http://www.w3.org/Graphics/SVG/1.1/DTD/svg11.dtd"><svg t="1530441715439" class="icon" style="" viewBox="0 0 1024 1024" version="1.1" xmlns="http://www.w3.org/2000/svg" p-id="2336" xmlns:xlink="http://www.w3.org/1999/xlink" width="200" height="200"><defs><style type="text/css"></style></defs><path d="M753.22 237.102l-17.22-17.22 71.466-23.82a16 16 0 0 1 20.238 20.236l-23.82 71.466-16.722-16.72-180.684 180.822a24 24 0 0 1-31.248 2.332l-119.636-88.478-202.742 139.112c-10.93 7.5-25.87 4.718-33.368-6.212-7.5-10.93-4.72-25.868 6.21-33.368l216.844-148.786a24 24 0 0 1 27.85 0.494l116.754 86.348 166.08-166.206zM88 848h848c13.254 0 24 10.746 24 24s-10.746 24-24 24H88c-13.254 0-24-10.746-24-24s10.746-24 24-24z m142-266c13.254 0 24 10.746 24 24v192.454c0 13.254-10.746 24-24 24s-24-10.746-24-24V606c0-13.254 10.746-24 24-24z m187.334-104.292c13.254 0 24 10.744 24 24v296.586c0 13.256-10.746 24-24 24-13.256 0-24-10.744-24-24V501.708c0-13.256 10.744-24 24-24z m187.332 104.132c13.256 0 24 10.746 24 24v192.454c0 13.256-10.744 24-24 24-13.254 0-24-10.744-24-24V605.84c0-13.254 10.746-24 24-24zM792 366c13.254 0 24 10.746 24 24v408.294c0 13.256-10.746 24-24 24s-24-10.744-24-24V390c0-13.254 10.746-24 24-24z" p-id="2337" fill="#1afa29"></path></svg>