<?xml version="1.0" standalone="no"?><!DOCTYPE svg PUBLIC "-//W3C//DTD SVG 1.1//EN" "http://www.w3.org/Graphics/SVG/1.1/DTD/svg11.dtd"><svg t="1530441748276" class="icon" style="" viewBox="0 0 1024 1024" version="1.1" xmlns="http://www.w3.org/2000/svg" p-id="2642" xmlns:xlink="http://www.w3.org/1999/xlink" width="200" height="200"><defs><style type="text/css"></style></defs><path d="M897.302736 415.701409h-402.78694a18.062195 18.062195 0 0 1 0-36.124389h371.909618C857.051135 358.534563 847.243363 326.57351 847.243363 284.958214c0-42.202318 13.08606-85.081968 22.975112-111.461804H146.366994a16.572064 16.572064 0 0 0-1.806219 7.866086v190.348438a18.062195 18.062195 0 1 1-36.12439 0V181.362496c0-24.672958 15.515425-43.990475 35.329653-43.990475h753.536698a18.062195 18.062195 0 0 1 16.255975 25.901187c-0.298026 0.614115-30.209021 63.642143-30.209021 121.694037 0 65.529642 27.770624 101.057979 28.050589 101.410191a18.062195 18.062195 0 0 1-14.115605 29.333004z" fill="#1296db" p-id="2643"></path><path d="M203.082285 415.701409h-68.31122a18.062195 18.062195 0 0 1 0-36.124389h68.31122a18.062195 18.062195 0 0 1 0 36.124389zM897.302736 886.465419H143.811194c-19.814228 0-35.329653-19.326548-35.329653-43.990475V652.126506a18.062195 18.062195 0 0 1 36.124389 0v190.348438a16.563032 16.563032 0 0 0 1.80622 7.866086h723.806325c-9.934207-26.388866-22.975112-69.259485-22.975112-111.461803 0-41.615296 9.807772-73.57635 19.182051-94.618807H494.479671a18.062195 18.062195 0 0 1 0-36.124389h402.78694a17.989946 17.989946 0 0 1 14.15173 29.287848c-1.074701 1.417882-28.077682 37.768049-28.077682 101.455348 0 58.277671 29.901963 121.061859 30.209021 121.694036a18.062195 18.062195 0 0 1-16.255975 25.901187z m-750.240347-35.158062z" fill="#1296db" p-id="2644"></path><path d="M203.082285 644.26042h-71.923659a18.062195 18.062195 0 0 1 0-36.124389h71.93269a18.062195 18.062195 0 1 1 0 36.124389zM896.535093 644.305576a18.062195 18.062195 0 0 1-15.398021-8.624698c-1.417882-2.311961-34.65232-57.356499-34.652321-124.746547 0-78.037712 34.471698-122.118498 35.943768-123.951811l28.23121 22.577743 0.063217-0.08128c-0.279964 0.361244-28.113806 36.837846-28.113806 101.500503 0 56.895913 29.062071 105.419999 29.351067 105.907678a18.062195 18.062195 0 0 1-15.425114 27.463567zM411.023301 715.019068a18.062195 18.062195 0 0 1-12.110702-4.651016l-52.777732-47.648069-49.074983 46.790115a18.062195 18.062195 0 0 1-30.525109-13.077029V344.292523a18.062195 18.062195 0 0 1 18.062195-18.062195l126.435362-0.117404a18.062195 18.062195 0 0 1 18.062195 18.062195v352.781754a18.062195 18.062195 0 0 1-18.062195 18.062195zM345.800716 620.020955a18.008008 18.008008 0 0 1 12.101671 4.651015l35.058719 31.608841V362.264407l-90.310973 0.081279v291.912159l30.705731-29.251724a18.062195 18.062195 0 0 1 12.444852-4.985166z" fill="#1296db" p-id="2645"></path><path d="M126.534704 665.591872a18.062195 18.062195 0 0 1-18.062194-18.062195V360.340783a18.062195 18.062195 0 0 1 36.124389 0v287.188894a18.062195 18.062195 0 0 1-18.062195 18.062195z" fill="#1296db" p-id="2646"></path></svg>