<?xml version="1.0" standalone="no"?><!DOCTYPE svg PUBLIC "-//W3C//DTD SVG 1.1//EN" "http://www.w3.org/Graphics/SVG/1.1/DTD/svg11.dtd"><svg t="1530439507662" class="icon" style="" viewBox="0 0 1024 1024" version="1.1" xmlns="http://www.w3.org/2000/svg" p-id="1061" xmlns:xlink="http://www.w3.org/1999/xlink" width="200" height="200"><defs><style type="text/css"></style></defs><path d="M952.214337 854.563562l-310.277643 162.939097a57.779822 57.779822 0 0 1-84.358539-49.112848v-313.166634a94.758907 94.758907 0 0 1 50.846243-83.202943l310.277642-162.939097a57.779822 57.779822 0 0 1 84.35854 49.112849v313.166633a94.758907 94.758907 0 0 1-50.846243 83.202943z m-17.333947-546.597113L572.600908 495.173071a132.315792 132.315792 0 0 1-121.337625 0L88.983801 307.966449a57.779822 57.779822 0 0 1 0-105.737073L451.263283 14.444955a135.782581 135.782581 0 0 1 121.337625 0l362.279482 187.784421a57.779822 57.779822 0 0 1 0 105.737073zM104.584353 409.081137L408.506215 572.020234a94.181109 94.181109 0 0 1 50.268445 83.202943v313.166634a57.779822 57.779822 0 0 1-83.780742 49.112848L71.072057 854.563562A95.336706 95.336706 0 0 1 20.803612 771.360619V458.193986a57.779822 57.779822 0 0 1 83.780741-49.112849z m7.511377 199.918183l193.562402 105.737074a35.245691 35.245691 0 0 0 47.957252-13.289359 34.090095 34.090095 0 0 0-13.289359-46.801656L146.185825 548.908306a34.667893 34.667893 0 0 0-47.379454 13.289359 33.512297 33.512297 0 0 0 13.289359 46.801655z" fill="#e0620d" p-id="1062"></path></svg>